<svg xmlns="http://www.w3.org/2000/svg" viewBox="0 0 100 100">
  <defs>
    <linearGradient id="bgGrad" x1="0%" y1="0%" x2="100%" y2="100%">
      <stop offset="0%" stop-color="#0f172a" />
      <stop offset="100%" stop-color="#1e1b4b" />
    </linearGradient>
    <linearGradient id="accentGrad" x1="0%" y1="0%" x2="100%" y2="0%">
      <stop offset="0%" stop-color="#3b82f6" />
      <stop offset="100%" stop-color="#06b6d4" />
    </linearGradient>
    <linearGradient id="neonGlow" x1="0%" y1="0%" x2="0%" y2="100%">
      <stop offset="0%" stop-color="#a855f7" />
      <stop offset="100%" stop-color="#06b6d4" />
    </linearGradient>
  </defs>
  
  <!-- Outer circle with border -->
  <circle cx="50" cy="50" r="48" fill="transparent" stroke="url(#neonGlow)" stroke-width="2" />
  
  <!-- Back lights/glow -->
  <circle cx="50" cy="40" r="25" fill="#3b82f6" opacity="0.15" filter="blur(5px)" />
  
  <!-- Body (Hoodie) -->
  <path d="M 22,88 C 22,72 32,68 50,68 C 68,68 78,72 78,88 Z" fill="#1e293b" />
  <path d="M 28,88 L 50,74 L 72,88 Z" fill="#334155" />
  <!-- Hoodie inner/cords -->
  <path d="M 43,79 L 43,86 M 57,79 L 57,86" stroke="#06b6d4" stroke-width="2" stroke-linecap="round" />
  
  <!-- Neck -->
  <rect x="46" y="58" width="8" height="12" rx="2" fill="#ffedd5" />
  
  <!-- Head/Face -->
  <circle cx="50" cy="44" r="17" fill="#ffedd5" />
  
  <!-- Eyes -->
  <circle cx="44" cy="44" r="2" fill="#0f172a" />
  <circle cx="56" cy="44" r="2" fill="#0f172a" />
  
  <!-- Smile -->
  <path d="M 45,51 Q 50,55 55,51" fill="none" stroke="#0f172a" stroke-width="2" stroke-linecap="round" />
  
  <!-- Hair (Male Gamer style, spiky cool) -->
  <path d="M 31,40 C 29,26 40,20 50,20 C 60,20 69,26 69,40 C 64,36 58,38 50,34 C 42,38 36,36 31,40 Z" fill="#0f172a" />
  <!-- Spikes -->
  <path d="M 33,35 L 36,25 L 42,28 L 47,20 L 52,26 L 59,18 L 63,26 L 68,34 Z" fill="#0f172a" />
  
  <!-- Gaming Headset (Cosmic Cyan/Blue) -->
  <!-- Headband -->
  <path d="M 32,36 A 19,19 0 0,1 68,36" fill="none" stroke="url(#accentGrad)" stroke-width="3" stroke-linecap="round" />
  <!-- Ear cups -->
  <rect x="29" y="36" width="6" height="12" rx="3" fill="url(#accentGrad)" />
  <rect x="65" y="36" width="6" height="12" rx="3" fill="url(#accentGrad)" />
  <!-- Mic -->
  <path d="M 32,45 Q 36,52 42,50" fill="none" stroke="#06b6d4" stroke-width="1.5" stroke-linecap="round" />
  <circle cx="42" cy="50" r="1.5" fill="#3b82f6" />
</svg>
